<svg aria-hidden="true" style="width:0;height:0;position:absolute;overflow:hidden" xmlns="http://www.w3.org/2000/svg"><defs><symbol id="icon-search" viewBox="0 0 32 32"><path fill="none" stroke="#fff" style="stroke:var(--color1,#fff)" stroke-linejoin="round" stroke-linecap="round" stroke-width="2.667" d="M14.675 25.347c5.894 0 10.672-4.778 10.672-10.672S20.569 4.003 14.675 4.003v0c-5.894 0-10.672 4.778-10.672 10.672s4.778 10.672 10.672 10.672v0zm13.34 2.668-5.803-5.803"/></symbol><symbol id="icon-film" viewBox="0 0 32 32"><path fill="none" stroke="#fff" style="stroke:var(--color1,#fff)" stroke-linejoin="round" stroke-linecap="round" stroke-width="2.667" d="M26.43 2.667H5.574a2.907 2.907 0 0 0-2.907 2.907V26.43a2.907 2.907 0 0 0 2.907 2.907v0H26.43a2.907 2.907 0 0 0 2.907-2.907v0V5.574a2.907 2.907 0 0 0-2.907-2.907v0zm-17.095 0v26.671M22.67 2.667v26.671M2.667 16.002h26.671M2.667 9.335h6.668M2.667 22.67h6.668m13.335 0h6.668M22.67 9.335h6.668"/></symbol><symbol id="arrow-right" viewBox="0 0 16 16"><path d="M3.333 8h9.334M8 12.667 12.667 8 8 3.333" stroke-width="1.333" stroke-linecap="round" stroke-linejoin="round"/></symbol><symbol id="arrow-left" viewBox="0 0 16 16"><path d="M12.667 8H3.333M8 12.667 3.333 8 8 3.333" stroke-width="1.333" stroke-linecap="round" stroke-linejoin="round"/></symbol><symbol id="dots" viewBox="0 0 10 3" xmlns="http://www.w3.org/2000/svg"><path d="M1.617.5c.266 0 .47.076.615.229a.773.773 0 0 1 .217.562.766.766 0 0 1-.217.557c-.144.144-.35.216-.615.216-.254 0-.455-.072-.603-.216A.743.743 0 0 1 .79 1.29c0-.227.072-.414.217-.562.144-.153.347-.229.61-.229ZM4.97.5c.265 0 .47.076.615.229a.773.773 0 0 1 .217.562.766.766 0 0 1-.217.557c-.145.144-.35.216-.615.216-.254 0-.455-.072-.604-.216a.743.743 0 0 1-.222-.557c0-.227.072-.414.216-.562C4.504.576 4.707.5 4.97.5ZM8.32.5c.266 0 .471.076.616.229a.773.773 0 0 1 .216.562.766.766 0 0 1-.216.557c-.145.144-.35.216-.616.216-.254 0-.455-.072-.603-.216a.743.743 0 0 1-.223-.557c0-.227.072-.414.217-.562C7.855.576 8.059.5 8.32.5Z"/></symbol><symbol id="icon-close" viewBox="1 0 32 32"><path d="m26.674 9.083-1.97-1.97-7.81 7.81-7.81-7.81-1.97 1.97 7.81 7.81-7.81 7.81 1.97 1.97 7.81-7.81 7.81 7.81 1.97-1.97-7.81-7.81 7.81-7.81z"/></symbol><symbol id="icon-github" viewBox="0 0 32 32"><path d="M16 .395c-8.836 0-16 7.163-16 16 0 7.069 4.585 13.067 10.942 15.182.8.148 1.094-.347 1.094-.77 0-.381-.015-1.642-.022-2.979-4.452.968-5.391-1.888-5.391-1.888-.728-1.849-1.776-2.341-1.776-2.341-1.452-.993.11-.973.11-.973 1.606.113 2.452 1.649 2.452 1.649 1.427 2.446 3.743 1.739 4.656 1.33.143-1.034.558-1.74 1.016-2.14-3.554-.404-7.29-1.777-7.29-7.907 0-1.747.625-3.174 1.649-4.295-.166-.403-.714-2.03.155-4.234 0 0 1.344-.43 4.401 1.64a15.353 15.353 0 0 1 4.005-.539c1.359.006 2.729.184 4.008.539 3.054-2.07 4.395-1.64 4.395-1.64.871 2.204.323 3.831.157 4.234 1.026 1.12 1.647 2.548 1.647 4.295 0 6.145-3.743 7.498-7.306 7.895.574.497 1.085 1.47 1.085 2.963 0 2.141-.019 3.864-.019 4.391 0 .426.288.925 1.099.768C27.421 29.457 32 23.462 32 16.395c0-8.837-7.164-16-16-16z"/></symbol><symbol id="icon-linkedin" viewBox="0 0 32 32"><path d="M31.992 32v-.001H32V20.263c0-5.741-1.236-10.164-7.948-10.164-3.227 0-5.392 1.771-6.276 3.449h-.093v-2.913h-6.364v21.364h6.627V21.42c0-2.785.528-5.479 3.977-5.479 3.399 0 3.449 3.179 3.449 5.657v10.401h6.62zM.528 10.636h6.635V32H.528V10.636zM3.843 0C1.722 0 0 1.721 0 3.843s1.721 3.879 3.843 3.879c2.121 0 3.843-1.757 3.843-3.879A3.846 3.846 0 0 0 3.843 0z"/><symbol id="icon-heart" fill="none" xmlns="http://www.w3.org/2000/svg"><path d="m7 12.88-.98-.98C2.38 8.68 0 6.51 0 3.85 0 1.68 1.68 0 3.85 0 5.04 0 6.23.56 7 1.47 7.77.56 8.96 0 10.15 0 12.32 0 14 1.68 14 3.85c0 2.66-2.38 4.83-6.02 8.05l-.98.98Z" fill="#FF6B08"/></symbol><symbol id="icon-toggle-turn-on-icon" viewBox="0 0 71 32"><path d="M54.765 2.365h.289c7.524.016 13.619 6.111 13.635 13.633v1.047l.002.084-.002.088v-.004c0 .173-.035.347-.058.515-.859 6.323-5.925 11.235-12.249 11.85l-.056.004h-1.561c-7.53 0-13.635-6.105-13.635-13.635S47.235 2.312 54.765 2.312zM12.721 16.006c0-1.966.37-3.406 1.11-4.308s2.064-1.353 3.99-1.353 3.25.451 3.984 1.353 1.11 2.342 1.11 4.308l.001.115c0 .844-.095 1.667-.275 2.457l.014-.074a4.487 4.487 0 0 1-.812 1.746l.008-.011c-.397.503-.93.881-1.544 1.081l-.023.006a7.519 7.519 0 0 1-2.497.346h.01a7.628 7.628 0 0 1-2.54-.362l.054.015a3.239 3.239 0 0 1-1.568-1.08l-.005-.007a4.443 4.443 0 0 1-.798-1.705l-.006-.03a10.715 10.715 0 0 1-.213-2.514v.016zm3.718-1.793V18.7h1.428a2.386 2.386 0 0 0 1.045-.167l-.016.006c.214-.11.318-.358.318-.752V13.3h-1.446a2.313 2.313 0 0 0-1.027.173l.015-.006c-.214.11-.318.358-.318.752zm14.254 7.182-2.643-3.834a1.846 1.846 0 0 1-.168-.775l.001-.054v.003h-.069v4.661h-3.469v-10.79h3.25l2.654 3.851c.11.222.175.483.175.759l-.001.071v-.003h.069v-4.678h3.469v10.79zM55.055 0H16C7.163 0 0 7.163 0 16s7.163 16 16 16h40.483c7.42-.713 13.326-6.376 14.405-13.616l.011-.088q0-.191.052-.399c0-.133 0-.266.04-.399v-1.444c0-8.825-7.121-15.986-15.93-16.052h-.006z"/></symbol><symbol id="icon-exit" viewBox="0 0 32 32"><path d="M24 20v-4H14v-4h10V8l6 6zm-2-2v8H12v6L0 26V0h22v10h-2V2H4l8 4v18h8v-6z"/></symbol><symbol id="icon-moon" viewBox="0 0 32 32"><path d="M21.866 21.447c-3.117 3.12-8.193 3.12-11.313 0s-3.12-8.195 0-11.314a7.952 7.952 0 0 1 2.989-1.863.998.998 0 0 1 1.039.237.995.995 0 0 1 .237 1.039c-.784 2.211-.25 4.604 1.391 6.245 1.638 1.639 4.031 2.172 6.245 1.391a.996.996 0 0 1 1.039.237.995.995 0 0 1 .236 1.039 7.907 7.907 0 0 1-1.863 2.989zm-9.899-9.9a6.007 6.007 0 0 0 0 8.486c2.5 2.501 6.758 2.276 8.937-.51-2.247.141-4.461-.671-6.109-2.318s-2.458-3.861-2.318-6.108c-.18.141-.35.29-.51.451z"/></symbol><symbol id="icon-sun" viewBox="0 0 32 32"><path d="M16 9c-3.859 0-7 3.141-7 7s3.141 7 7 7 7-3.141 7-7-3.141-7-7-7zm0 12c-2.762 0-5-2.238-5-5s2.238-5 5-5 5 2.238 5 5-2.238 5-5 5zm0-14a1 1 0 0 0 1-1V4a1 1 0 0 0-2 0v2a1 1 0 0 0 1 1zm0 18a1 1 0 0 0-1 1v2a1 1 0 0 0 2 0v-2a1 1 0 0 0-1-1zm7.777-15.365 1.414-1.414a.999.999 0 1 0-1.414-1.414l-1.414 1.414a.999.999 0 1 0 1.414 1.414zM8.223 22.365l-1.414 1.414a.999.999 0 1 0 1.414 1.414l1.414-1.414a.999.999 0 1 0-1.414-1.414zM7 16a1 1 0 0 0-1-1H4a1 1 0 0 0 0 2h2a1 1 0 0 0 1-1zm21-1h-2a1 1 0 0 0 0 2h2a1 1 0 0 0 0-2zM8.221 9.635a.999.999 0 1 0 1.414-1.414L8.221 6.807a.999.999 0 1 0-1.414 1.414l1.414 1.414zm15.558 12.728a.999.999 0 1 0-1.414 1.414l1.414 1.414a.999.999 0 1 0 1.414-1.414l-1.414-1.414z"/></symbol></symbol></defs></svg>