<svg aria-hidden="true" style="position: absolute; width: 0; height: 0; overflow: hidden;" version="1.1"
  xmlns="http://www.w3.org/2000/svg" xmlns:xlink="http://www.w3.org/1999/xlink">
  <defs>
    <symbol id="icon-search" viewBox="0 0 32 32">
      <path fill="none" stroke="#fff" style="stroke: var(--color1, #fff)" stroke-linejoin="round" stroke-linecap="round"
        stroke-miterlimit="4" stroke-width="2.6667"
        d="M14.675 25.347c5.894 0 10.672-4.778 10.672-10.672s-4.778-10.672-10.672-10.672v0c-5.894 0-10.672 4.778-10.672 10.672s4.778 10.672 10.672 10.672v0zM28.015 28.015l-5.803-5.803">
      </path>
    </symbol>
    <symbol id="icon-film" viewBox="0 0 32 32">
      <path fill="none" stroke="#fff" style="stroke: var(--color1, #fff)" stroke-linejoin="round" stroke-linecap="round"
        stroke-miterlimit="4" stroke-width="2.6667"
        d="M26.43 2.667h-20.856c-1.606 0-2.907 1.302-2.907 2.907v0 20.856c0 1.606 1.302 2.907 2.907 2.907v0h20.856c1.606 0 2.907-1.302 2.907-2.907v0-20.856c0-1.606-1.302-2.907-2.907-2.907v0zM9.335 2.667v26.671M22.67 2.667v26.671M2.667 16.002h26.671M2.667 9.335h6.668M2.667 22.67h6.668M22.67 22.67h6.668M22.67 9.335h6.668">
      </path>
    </symbol>

  <symbol id="arrow-right"  viewBox="0 0 16 16">
    <path d="M3.33341 8H12.6667"  stroke-width="1.33333" stroke-linecap="round" stroke-linejoin="round"/>
    <path d="M8.00008 12.6668L12.6667 8.00016L8.00008 3.3335" stroke-width="1.33333" stroke-linecap="round" stroke-linejoin="round"/>
  </symbol>
  <symbol id="arrow-left" viewBox="0 0 16 16">
    <path d="M12.6666 8H3.33325" stroke-width="1.33333" stroke-linecap="round" stroke-linejoin="round"/>
    <path d="M7.99992 12.6668L3.33325 8.00016L7.99992 3.3335" stroke-width="1.33333" stroke-linecap="round" stroke-linejoin="round"/>
  </symbol>
  <symbol id="dots" viewBox="0 0 10 3" xmlns="http://www.w3.org/2000/svg">
    <path d="M1.61719 0.5C1.88281 0.5 2.08789 0.576172 2.23242 0.728516C2.37695 0.876953 2.44922 1.06445 2.44922 1.29102C2.44922 1.51367 2.37695 1.69922 2.23242 1.84766C2.08789 1.99219 1.88281 2.06445 1.61719 2.06445C1.36328 2.06445 1.16211 1.99219 1.01367 1.84766C0.865234 1.70312 0.791016 1.51758 0.791016 1.29102C0.791016 1.06445 0.863281 0.876953 1.00781 0.728516C1.15234 0.576172 1.35547 0.5 1.61719 0.5ZM4.96875 0.5C5.23438 0.5 5.43945 0.576172 5.58398 0.728516C5.72852 0.876953 5.80078 1.06445 5.80078 1.29102C5.80078 1.51367 5.72852 1.69922 5.58398 1.84766C5.43945 1.99219 5.23438 2.06445 4.96875 2.06445C4.71484 2.06445 4.51367 1.99219 4.36523 1.84766C4.2168 1.70312 4.14258 1.51758 4.14258 1.29102C4.14258 1.06445 4.21484 0.876953 4.35938 0.728516C4.50391 0.576172 4.70703 0.5 4.96875 0.5ZM8.32031 0.5C8.58594 0.5 8.79102 0.576172 8.93555 0.728516C9.08008 0.876953 9.15234 1.06445 9.15234 1.29102C9.15234 1.51367 9.08008 1.69922 8.93555 1.84766C8.79102 1.99219 8.58594 2.06445 8.32031 2.06445C8.06641 2.06445 7.86523 1.99219 7.7168 1.84766C7.56836 1.70312 7.49414 1.51758 7.49414 1.29102C7.49414 1.06445 7.56641 0.876953 7.71094 0.728516C7.85547 0.576172 8.05859 0.5 8.32031 0.5Z" />
  </symbol>


    <symbol id="icon-close" viewBox="1 0 32 32">
      <path
        d="M26.674 9.083l-1.97-1.97-7.81 7.81-7.81-7.81-1.97 1.97 7.81 7.81-7.81 7.81 1.97 1.97 7.81-7.81 7.81 7.81 1.97-1.97-7.81-7.81 7.81-7.81z">
      </path>
    </symbol>

    <symbol id="icon-github" viewBox="0 0 32 32">
      <path
        d="M16 0.395c-8.836 0-16 7.163-16 16 0 7.069 4.585 13.067 10.942 15.182 0.8 0.148 1.094-0.347 1.094-0.77 0-0.381-0.015-1.642-0.022-2.979-4.452 0.968-5.391-1.888-5.391-1.888-0.728-1.849-1.776-2.341-1.776-2.341-1.452-0.993 0.11-0.973 0.11-0.973 1.606 0.113 2.452 1.649 2.452 1.649 1.427 2.446 3.743 1.739 4.656 1.33 0.143-1.034 0.558-1.74 1.016-2.14-3.554-0.404-7.29-1.777-7.29-7.907 0-1.747 0.625-3.174 1.649-4.295-0.166-0.403-0.714-2.030 0.155-4.234 0 0 1.344-0.43 4.401 1.64 1.276-0.355 2.645-0.532 4.005-0.539 1.359 0.006 2.729 0.184 4.008 0.539 3.054-2.070 4.395-1.64 4.395-1.64 0.871 2.204 0.323 3.831 0.157 4.234 1.026 1.12 1.647 2.548 1.647 4.295 0 6.145-3.743 7.498-7.306 7.895 0.574 0.497 1.085 1.47 1.085 2.963 0 2.141-0.019 3.864-0.019 4.391 0 0.426 0.288 0.925 1.099 0.768 6.354-2.118 10.933-8.113 10.933-15.18 0-8.837-7.164-16-16-16z">
      </path>
    </symbol>
    <symbol id="icon-linkedin" viewBox="0 0 32 32">
      <path
        d="M31.992 32v-.001H32V20.263c0-5.741-1.236-10.164-7.948-10.164-3.227 0-5.392 1.771-6.276 3.449h-.093v-2.913h-6.364v21.364h6.627V21.42c0-2.785.528-5.479 3.977-5.479 3.399 0 3.449 3.179 3.449 5.657v10.401h6.62zM.528 10.636h6.635V32H.528V10.636zM3.843 0C1.722 0 0 1.721 0 3.843s1.721 3.879 3.843 3.879c2.121 0 3.843-1.757 3.843-3.879A3.846 3.846 0 0 0 3.843 0z" />

      <symbol id="icon-heart" width="14" height="13" fill="none" xmlns="http://www.w3.org/2000/svg">
        <path
          d="m7 12.88-.98-.98C2.38 8.68 0 6.51 0 3.85 0 1.68 1.68 0 3.85 0 5.04 0 6.23.56 7 1.47 7.77.56 8.96 0 10.15 0 12.32 0 14 1.68 14 3.85c0 2.66-2.38 4.83-6.02 8.05l-.98.98Z"
          fill="#FF6B08" />
      </symbol>

  </defs>
</svg>